<?xml version="1.0" encoding="utf-8" standalone="no"?>
<!DOCTYPE svg PUBLIC "-//W3C//DTD SVG 1.1//EN"
  "http://www.w3.org/Graphics/SVG/1.1/DTD/svg11.dtd">
<svg xmlns:xlink="http://www.w3.org/1999/xlink" width="498.32122pt" height="248.45436pt" viewBox="0 0 498.32122 248.45436" xmlns="http://www.w3.org/2000/svg" version="1.1">
 <metadata>
  <rdf:RDF xmlns:dc="http://purl.org/dc/elements/1.1/" xmlns:cc="http://creativecommons.org/ns#" xmlns:rdf="http://www.w3.org/1999/02/22-rdf-syntax-ns#">
   <cc:Work>
    <dc:type rdf:resource="http://purl.org/dc/dcmitype/StillImage"/>
    <dc:date>2026-09-11T13:23:41.440587</dc:date>
    <dc:format>image/svg+xml</dc:format>
    <dc:creator>
     <cc:Agent>
      <dc:title>Matplotlib v3.10.8, https://matplotlib.org/</dc:title>
     </cc:Agent>
    </dc:creator>
   </cc:Work>
  </rdf:RDF>
 </metadata>
 <defs>
  <style type="text/css">*{stroke-linejoin: round; stroke-linecap: butt}</style>
 </defs>
 <g id="figure_1">
  <g id="patch_1">
   <path d="M 0 248.45436 
L 498.32122 248.45436 
L 498.32122 0 
L 0 0 
z
" style="fill: #ffffff"/>
  </g>
  <g id="axes_1">
   <g id="patch_2">
    <path d="M 31.18 222.79811 
L 494.72122 222.79811 
L 494.72122 3.6 
L 31.18 3.6 
z
" style="fill: #ffffff"/>
   </g>
   <g id="matplotlib.axis_1">
    <g id="xtick_1">
     <g id="line2d_1">
      <path d="M 52.250055 222.79811 
L 52.250055 3.6 
" clip-path="url(#p95a302c9bd)" style="fill: none; stroke: #cccccc; stroke-linecap: round"/>
     </g>
     <g id="text_1">
      <text style="font-size: 6px; font-family: 'Arial', 'DejaVu Sans'; text-anchor: middle; fill: #262626" x="52.250055" y="233.092798" transform="rotate(-0 52.250055 233.092798)">0.0</text>
     </g>
    </g>
    <g id="xtick_2">
     <g id="line2d_2">
      <path d="M 136.530277 222.79811 
L 136.530277 3.6 
" clip-path="url(#p95a302c9bd)" style="fill: none; stroke: #cccccc; stroke-linecap: round"/>
     </g>
     <g id="text_2">
      <text style="font-size: 6px; font-family: 'Arial', 'DejaVu Sans'; text-anchor: middle; fill: #262626" x="136.530277" y="233.092798" transform="rotate(-0 136.530277 233.092798)">0.2</text>
     </g>
    </g>
    <g id="xtick_3">
     <g id="line2d_3">
      <path d="M 220.810499 222.79811 
L 220.810499 3.6 
" clip-path="url(#p95a302c9bd)" style="fill: none; stroke: #cccccc; stroke-linecap: round"/>
     </g>
     <g id="text_3">
      <text style="font-size: 6px; font-family: 'Arial', 'DejaVu Sans'; text-anchor: middle; fill: #262626" x="220.810499" y="233.092798" transform="rotate(-0 220.810499 233.092798)">0.4</text>
     </g>
    </g>
    <g id="xtick_4">
     <g id="line2d_4">
      <path d="M 305.090721 222.79811 
L 305.090721 3.6 
" clip-path="url(#p95a302c9bd)" style="fill: none; stroke: #cccccc; stroke-linecap: round"/>
     </g>
     <g id="text_4">
      <text style="font-size: 6px; font-family: 'Arial', 'DejaVu Sans'; text-anchor: middle; fill: #262626" x="305.090721" y="233.092798" transform="rotate(-0 305.090721 233.092798)">0.6</text>
     </g>
    </g>
    <g id="xtick_5">
     <g id="line2d_5">
      <path d="M 389.370943 222.79811 
L 389.370943 3.6 
" clip-path="url(#p95a302c9bd)" style="fill: none; stroke: #cccccc; stroke-linecap: round"/>
     </g>
     <g id="text_5">
      <text style="font-size: 6px; font-family: 'Arial', 'DejaVu Sans'; text-anchor: middle; fill: #262626" x="389.370943" y="233.092798" transform="rotate(-0 389.370943 233.092798)">0.8</text>
     </g>
    </g>
    <g id="xtick_6">
     <g id="line2d_6">
      <path d="M 473.651165 222.79811 
L 473.651165 3.6 
" clip-path="url(#p95a302c9bd)" style="fill: none; stroke: #cccccc; stroke-linecap: round"/>
     </g>
     <g id="text_6">
      <text style="font-size: 6px; font-family: 'Arial', 'DejaVu Sans'; text-anchor: middle; fill: #262626" x="473.651165" y="233.092798" transform="rotate(-0 473.651165 233.092798)">1.0</text>
     </g>
    </g>
    <g id="text_7">
     <text style="font-size: 7px; font-family: 'Arial', 'DejaVu Sans'; text-anchor: middle; fill: #262626" x="262.95061" y="243.381079" transform="rotate(-0 262.95061 243.381079)">Temperature (T)</text>
    </g>
   </g>
   <g id="matplotlib.axis_2">
    <g id="ytick_1">
     <g id="line2d_7">
      <path d="M 31.18 222.79811 
L 494.72122 222.79811 
" clip-path="url(#p95a302c9bd)" style="fill: none; stroke: #cccccc; stroke-linecap: round"/>
     </g>
     <g id="text_8">
      <text style="font-size: 6px; font-family: 'Arial', 'DejaVu Sans'; text-anchor: end; fill: #262626" x="25.18" y="224.945454" transform="rotate(-0 25.18 224.945454)">0.0</text>
     </g>
    </g>
    <g id="ytick_2">
     <g id="line2d_8">
      <path d="M 31.18 190.990421 
L 494.72122 190.990421 
" clip-path="url(#p95a302c9bd)" style="fill: none; stroke: #cccccc; stroke-linecap: round"/>
     </g>
     <g id="text_9">
      <text style="font-size: 6px; font-family: 'Arial', 'DejaVu Sans'; text-anchor: end; fill: #262626" x="25.18" y="193.137765" transform="rotate(-0 25.18 193.137765)">0.1</text>
     </g>
    </g>
    <g id="ytick_3">
     <g id="line2d_9">
      <path d="M 31.18 159.182732 
L 494.72122 159.182732 
" clip-path="url(#p95a302c9bd)" style="fill: none; stroke: #cccccc; stroke-linecap: round"/>
     </g>
     <g id="text_10">
      <text style="font-size: 6px; font-family: 'Arial', 'DejaVu Sans'; text-anchor: end; fill: #262626" x="25.18" y="161.330075" transform="rotate(-0 25.18 161.330075)">0.2</text>
     </g>
    </g>
    <g id="ytick_4">
     <g id="line2d_10">
      <path d="M 31.18 127.375042 
L 494.72122 127.375042 
" clip-path="url(#p95a302c9bd)" style="fill: none; stroke: #cccccc; stroke-linecap: round"/>
     </g>
     <g id="text_11">
      <text style="font-size: 6px; font-family: 'Arial', 'DejaVu Sans'; text-anchor: end; fill: #262626" x="25.18" y="129.522386" transform="rotate(-0 25.18 129.522386)">0.3</text>
     </g>
    </g>
    <g id="ytick_5">
     <g id="line2d_11">
      <path d="M 31.18 95.567353 
L 494.72122 95.567353 
" clip-path="url(#p95a302c9bd)" style="fill: none; stroke: #cccccc; stroke-linecap: round"/>
     </g>
     <g id="text_12">
      <text style="font-size: 6px; font-family: 'Arial', 'DejaVu Sans'; text-anchor: end; fill: #262626" x="25.18" y="97.714697" transform="rotate(-0 25.18 97.714697)">0.4</text>
     </g>
    </g>
    <g id="ytick_6">
     <g id="line2d_12">
      <path d="M 31.18 63.759664 
L 494.72122 63.759664 
" clip-path="url(#p95a302c9bd)" style="fill: none; stroke: #cccccc; stroke-linecap: round"/>
     </g>
     <g id="text_13">
      <text style="font-size: 6px; font-family: 'Arial', 'DejaVu Sans'; text-anchor: end; fill: #262626" x="25.18" y="65.907008" transform="rotate(-0 25.18 65.907008)">0.5</text>
     </g>
    </g>
    <g id="ytick_7">
     <g id="line2d_13">
      <path d="M 31.18 31.951975 
L 494.72122 31.951975 
" clip-path="url(#p95a302c9bd)" style="fill: none; stroke: #cccccc; stroke-linecap: round"/>
     </g>
     <g id="text_14">
      <text style="font-size: 6px; font-family: 'Arial', 'DejaVu Sans'; text-anchor: end; fill: #262626" x="25.18" y="34.099318" transform="rotate(-0 25.18 34.099318)">0.6</text>
     </g>
    </g>
    <g id="text_15">
     <!-- $\hat{R}$ (remainder share) -->
     <g style="fill: #262626" transform="translate(11.3 144.419055) rotate(-90)">
      <text>
       <tspan x="5.059692" y="-2.40625" style="font-size: 7px; font-family: 'DejaVu Sans'; fill: #262626">̂</tspan>
       <tspan x="0" y="-0.34375" style="font-style: oblique; font-size: 7px; font-family: 'DejaVu Sans'; fill: #262626">R</tspan>
       <tspan x="4.86377" y="-0.34375" style="font-size: 7px; font-family: 'Arial'; fill: #262626"> </tspan>
       <tspan x="6.808594" y="-0.34375" style="font-size: 7px; font-family: 'Arial'; fill: #262626">(</tspan>
       <tspan x="9.139648" y="-0.34375" style="font-size: 7px; font-family: 'Arial'; fill: #262626">r</tspan>
       <tspan x="11.470703" y="-0.34375" style="font-size: 7px; font-family: 'Arial'; fill: #262626">e</tspan>
       <tspan x="15.36377" y="-0.34375" style="font-size: 7px; font-family: 'Arial'; fill: #262626">m</tspan>
       <tspan x="21.194824" y="-0.34375" style="font-size: 7px; font-family: 'Arial'; fill: #262626">a</tspan>
       <tspan x="25.087891" y="-0.34375" style="font-size: 7px; font-family: 'Arial'; fill: #262626">i</tspan>
       <tspan x="26.643066" y="-0.34375" style="font-size: 7px; font-family: 'Arial'; fill: #262626">n</tspan>
       <tspan x="30.536133" y="-0.34375" style="font-size: 7px; font-family: 'Arial'; fill: #262626">d</tspan>
       <tspan x="34.429199" y="-0.34375" style="font-size: 7px; font-family: 'Arial'; fill: #262626">e</tspan>
       <tspan x="38.322266" y="-0.34375" style="font-size: 7px; font-family: 'Arial'; fill: #262626">r</tspan>
       <tspan x="40.65332" y="-0.34375" style="font-size: 7px; font-family: 'Arial'; fill: #262626"> </tspan>
       <tspan x="42.598145" y="-0.34375" style="font-size: 7px; font-family: 'Arial'; fill: #262626">s</tspan>
       <tspan x="46.098145" y="-0.34375" style="font-size: 7px; font-family: 'Arial'; fill: #262626">h</tspan>
       <tspan x="49.991211" y="-0.34375" style="font-size: 7px; font-family: 'Arial'; fill: #262626">a</tspan>
       <tspan x="53.884277" y="-0.34375" style="font-size: 7px; font-family: 'Arial'; fill: #262626">r</tspan>
       <tspan x="56.215332" y="-0.34375" style="font-size: 7px; font-family: 'Arial'; fill: #262626">e</tspan>
       <tspan x="60.108398" y="-0.34375" style="font-size: 7px; font-family: 'Arial'; fill: #262626">)</tspan>
      </text>
     </g>
    </g>
   </g>
   <g id="line2d_14">
    <path d="M 52.250055 96.076276 
L 136.530277 132.49449 
L 220.810499 138.175343 
L 305.090721 146.644777 
L 389.370943 175.832467 
L 473.651165 178.888549 
" clip-path="url(#p95a302c9bd)" style="fill: none; stroke-dasharray: 3.33,1.44; stroke-dashoffset: 0; stroke: #000000; stroke-opacity: 0.4; stroke-width: 0.9"/>
   </g>
   <g id="line2d_15">
    <path d="M 52.250055 44.44031 
L 136.530277 49.044473 
L 220.810499 70.96665 
L 305.090721 79.346386 
L 389.370943 88.936722 
L 473.651165 93.677976 
" clip-path="url(#p95a302c9bd)" style="fill: none; stroke-dasharray: 3.33,1.44; stroke-dashoffset: 0; stroke: #56b4e9; stroke-opacity: 0.4; stroke-width: 0.9"/>
   </g>
   <g id="line2d_16">
    <path d="M 52.250055 43.236389 
L 136.530277 23.331773 
L 220.810499 13.735075 
L 305.090721 17.137225 
L 389.370943 49.006303 
L 473.651165 51.934837 
" clip-path="url(#p95a302c9bd)" style="fill: none; stroke-dasharray: 3.33,1.44; stroke-dashoffset: 0; stroke: #009e73; stroke-opacity: 0.4; stroke-width: 0.9"/>
   </g>
   <g id="line2d_17">
    <path d="M 52.250055 29.785235 
L 136.530277 49.361913 
L 220.810499 49.965941 
L 305.090721 76.875565 
L 389.370943 102.888529 
L 473.651165 83.590486 
" clip-path="url(#p95a302c9bd)" style="fill: none; stroke-dasharray: 3.33,1.44; stroke-dashoffset: 0; stroke: #e69f00; stroke-opacity: 0.4; stroke-width: 0.9"/>
   </g>
   <g id="patch_3">
    <path d="M 31.18 222.79811 
L 31.18 3.6 
" style="fill: none; stroke: #cccccc; stroke-width: 0.6; stroke-linejoin: miter; stroke-linecap: square"/>
   </g>
   <g id="patch_4">
    <path d="M 31.18 222.79811 
L 494.72122 222.79811 
" style="fill: none; stroke: #cccccc; stroke-width: 0.6; stroke-linejoin: miter; stroke-linecap: square"/>
   </g>
   <g id="line2d_18">
    <path d="M 52.250055 74.007465 
L 136.530277 123.593426 
L 220.810499 131.901277 
L 305.090721 147.339139 
L 389.370943 155.148881 
L 473.651165 153.09633 
" clip-path="url(#p95a302c9bd)" style="fill: none; stroke: #000000; stroke-width: 1.2; stroke-linecap: round"/>
    <defs>
     <path id="ma38835cbc0" d="M 0 1.5 
C 0.397805 1.5 0.77937 1.341951 1.06066 1.06066 
C 1.341951 0.77937 1.5 0.397805 1.5 0 
C 1.5 -0.397805 1.341951 -0.77937 1.06066 -1.06066 
C 0.77937 -1.341951 0.397805 -1.5 0 -1.5 
C -0.397805 -1.5 -0.77937 -1.341951 -1.06066 -1.06066 
C -1.341951 -0.77937 -1.5 -0.397805 -1.5 0 
C -1.5 0.397805 -1.341951 0.77937 -1.06066 1.06066 
C -0.77937 1.341951 -0.397805 1.5 0 1.5 
z
" style="stroke: #000000"/>
    </defs>
    <g clip-path="url(#p95a302c9bd)">
     <use xlink:href="#ma38835cbc0" x="52.250055" y="74.007465" style="stroke: #000000"/>
     <use xlink:href="#ma38835cbc0" x="136.530277" y="123.593426" style="stroke: #000000"/>
     <use xlink:href="#ma38835cbc0" x="220.810499" y="131.901277" style="stroke: #000000"/>
     <use xlink:href="#ma38835cbc0" x="305.090721" y="147.339139" style="stroke: #000000"/>
     <use xlink:href="#ma38835cbc0" x="389.370943" y="155.148881" style="stroke: #000000"/>
     <use xlink:href="#ma38835cbc0" x="473.651165" y="153.09633" style="stroke: #000000"/>
    </g>
   </g>
   <g id="line2d_19">
    <path d="M 52.250055 43.534109 
L 136.530277 53.580885 
L 220.810499 64.889791 
L 305.090721 77.103308 
L 389.370943 83.204341 
L 473.651165 85.568288 
" clip-path="url(#p95a302c9bd)" style="fill: none; stroke: #56b4e9; stroke-width: 1.2; stroke-linecap: round"/>
    <defs>
     <path id="md5b3b661ca" d="M 0 1.5 
C 0.397805 1.5 0.77937 1.341951 1.06066 1.06066 
C 1.341951 0.77937 1.5 0.397805 1.5 0 
C 1.5 -0.397805 1.341951 -0.77937 1.06066 -1.06066 
C 0.77937 -1.341951 0.397805 -1.5 0 -1.5 
C -0.397805 -1.5 -0.77937 -1.341951 -1.06066 -1.06066 
C -1.341951 -0.77937 -1.5 -0.397805 -1.5 0 
C -1.5 0.397805 -1.341951 0.77937 -1.06066 1.06066 
C -0.77937 1.341951 -0.397805 1.5 0 1.5 
z
" style="stroke: #56b4e9"/>
    </defs>
    <g clip-path="url(#p95a302c9bd)">
     <use xlink:href="#md5b3b661ca" x="52.250055" y="43.534109" style="fill: #56b4e9; stroke: #56b4e9"/>
     <use xlink:href="#md5b3b661ca" x="136.530277" y="53.580885" style="fill: #56b4e9; stroke: #56b4e9"/>
     <use xlink:href="#md5b3b661ca" x="220.810499" y="64.889791" style="fill: #56b4e9; stroke: #56b4e9"/>
     <use xlink:href="#md5b3b661ca" x="305.090721" y="77.103308" style="fill: #56b4e9; stroke: #56b4e9"/>
     <use xlink:href="#md5b3b661ca" x="389.370943" y="83.204341" style="fill: #56b4e9; stroke: #56b4e9"/>
     <use xlink:href="#md5b3b661ca" x="473.651165" y="85.568288" style="fill: #56b4e9; stroke: #56b4e9"/>
    </g>
   </g>
   <g id="line2d_20">
    <path d="M 52.250055 59.252514 
L 136.530277 51.449452 
L 220.810499 29.041571 
L 305.090721 53.226866 
L 389.370943 67.235608 
L 473.651165 67.562909 
" clip-path="url(#p95a302c9bd)" style="fill: none; stroke: #009e73; stroke-width: 1.2; stroke-linecap: round"/>
    <defs>
     <path id="m4ed32c6715" d="M 0 1.5 
C 0.397805 1.5 0.77937 1.341951 1.06066 1.06066 
C 1.341951 0.77937 1.5 0.397805 1.5 0 
C 1.5 -0.397805 1.341951 -0.77937 1.06066 -1.06066 
C 0.77937 -1.341951 0.397805 -1.5 0 -1.5 
C -0.397805 -1.5 -0.77937 -1.341951 -1.06066 -1.06066 
C -1.341951 -0.77937 -1.5 -0.397805 -1.5 0 
C -1.5 0.397805 -1.341951 0.77937 -1.06066 1.06066 
C -0.77937 1.341951 -0.397805 1.5 0 1.5 
z
" style="stroke: #009e73"/>
    </defs>
    <g clip-path="url(#p95a302c9bd)">
     <use xlink:href="#m4ed32c6715" x="52.250055" y="59.252514" style="fill: #009e73; stroke: #009e73"/>
     <use xlink:href="#m4ed32c6715" x="136.530277" y="51.449452" style="fill: #009e73; stroke: #009e73"/>
     <use xlink:href="#m4ed32c6715" x="220.810499" y="29.041571" style="fill: #009e73; stroke: #009e73"/>
     <use xlink:href="#m4ed32c6715" x="305.090721" y="53.226866" style="fill: #009e73; stroke: #009e73"/>
     <use xlink:href="#m4ed32c6715" x="389.370943" y="67.235608" style="fill: #009e73; stroke: #009e73"/>
     <use xlink:href="#m4ed32c6715" x="473.651165" y="67.562909" style="fill: #009e73; stroke: #009e73"/>
    </g>
   </g>
   <g id="line2d_21">
    <path d="M 52.250055 59.251242 
L 136.530277 68.967537 
L 220.810499 60.659368 
L 305.090721 76.528861 
L 389.370943 85.666892 
L 473.651165 95.544134 
" clip-path="url(#p95a302c9bd)" style="fill: none; stroke: #e69f00; stroke-width: 1.2; stroke-linecap: round"/>
    <defs>
     <path id="mb0492e255c" d="M 0 1.5 
C 0.397805 1.5 0.77937 1.341951 1.06066 1.06066 
C 1.341951 0.77937 1.5 0.397805 1.5 0 
C 1.5 -0.397805 1.341951 -0.77937 1.06066 -1.06066 
C 0.77937 -1.341951 0.397805 -1.5 0 -1.5 
C -0.397805 -1.5 -0.77937 -1.341951 -1.06066 -1.06066 
C -1.341951 -0.77937 -1.5 -0.397805 -1.5 0 
C -1.5 0.397805 -1.341951 0.77937 -1.06066 1.06066 
C -0.77937 1.341951 -0.397805 1.5 0 1.5 
z
" style="stroke: #e69f00"/>
    </defs>
    <g clip-path="url(#p95a302c9bd)">
     <use xlink:href="#mb0492e255c" x="52.250055" y="59.251242" style="fill: #e69f00; stroke: #e69f00"/>
     <use xlink:href="#mb0492e255c" x="136.530277" y="68.967537" style="fill: #e69f00; stroke: #e69f00"/>
     <use xlink:href="#mb0492e255c" x="220.810499" y="60.659368" style="fill: #e69f00; stroke: #e69f00"/>
     <use xlink:href="#mb0492e255c" x="305.090721" y="76.528861" style="fill: #e69f00; stroke: #e69f00"/>
     <use xlink:href="#mb0492e255c" x="389.370943" y="85.666892" style="fill: #e69f00; stroke: #e69f00"/>
     <use xlink:href="#mb0492e255c" x="473.651165" y="95.544134" style="fill: #e69f00; stroke: #e69f00"/>
    </g>
   </g>
   <g id="text_16">
    <g id="patch_5">
     <path d="M 440.811334 24.943337 
L 485.450396 24.943337 
Q 486.950396 24.943337 486.950396 23.443337 
L 486.950396 7.983962 
Q 486.950396 6.483962 485.450396 6.483962 
L 440.811334 6.483962 
Q 439.311334 6.483962 439.311334 7.983962 
L 439.311334 23.443337 
Q 439.311334 24.943337 440.811334 24.943337 
z
" style="fill: #ffffff; stroke: #808080; stroke-width: 0.4; stroke-linejoin: miter"/>
    </g>
    <text style="font-size: 5px; font-family: 'Arial', 'DejaVu Sans'" transform="translate(440.811334 11.623806)">solid: MLP (primary)</text>
    <text style="font-size: 5px; font-family: 'Arial', 'DejaVu Sans'" transform="translate(453.206646 16.970837)">dashed: Ridge</text>
    <text style="font-size: 5px; font-family: 'Arial', 'DejaVu Sans'" transform="translate(453.588677 22.390993)">| : H50 first fail</text>
   </g>
   <g id="line2d_22">
    <path d="M 52.250055 216.436572 
" clip-path="url(#p95a302c9bd)" style="fill: none; stroke: #e69f00; stroke-width: 1.5; stroke-linecap: round"/>
    <defs>
     <path id="m8ae4c6b489" d="M 0 4 
L 0 -4 
" style="stroke: #e69f00; stroke-width: 1.5"/>
    </defs>
    <g clip-path="url(#p95a302c9bd)">
     <use xlink:href="#m8ae4c6b489" x="52.250055" y="216.436572" style="fill: #e69f00; stroke: #e69f00; stroke-width: 1.5"/>
    </g>
   </g>
   <g id="legend_1">
    <g id="line2d_23">
     <path d="M 421.169658 188.644048 
L 427.169658 188.644048 
L 433.169658 188.644048 
" style="fill: none; stroke: #000000; stroke-width: 1.2; stroke-linecap: round"/>
     <g>
      <use xlink:href="#ma38835cbc0" x="427.169658" y="188.644048" style="stroke: #000000"/>
     </g>
    </g>
    <g id="text_17">
     <text style="font-size: 6px; font-family: 'Arial', 'DejaVu Sans'; text-anchor: start; fill: #262626" x="437.969658" y="190.744048" transform="rotate(-0 437.969658 190.744048)">LLaMA 3 8B Q4</text>
    </g>
    <g id="line2d_24">
     <path d="M 421.169658 197.131235 
L 427.169658 197.131235 
L 433.169658 197.131235 
" style="fill: none; stroke: #56b4e9; stroke-width: 1.2; stroke-linecap: round"/>
     <g>
      <use xlink:href="#md5b3b661ca" x="427.169658" y="197.131235" style="fill: #56b4e9; stroke: #56b4e9"/>
     </g>
    </g>
    <g id="text_18">
     <text style="font-size: 6px; font-family: 'Arial', 'DejaVu Sans'; text-anchor: start; fill: #262626" x="437.969658" y="199.231235" transform="rotate(-0 437.969658 199.231235)">Gemma 2 9B Q4</text>
    </g>
    <g id="line2d_25">
     <path d="M 421.169658 205.618423 
L 427.169658 205.618423 
L 433.169658 205.618423 
" style="fill: none; stroke: #009e73; stroke-width: 1.2; stroke-linecap: round"/>
     <g>
      <use xlink:href="#m4ed32c6715" x="427.169658" y="205.618423" style="fill: #009e73; stroke: #009e73"/>
     </g>
    </g>
    <g id="text_19">
     <text style="font-size: 6px; font-family: 'Arial', 'DejaVu Sans'; text-anchor: start; fill: #262626" x="437.969658" y="207.718423" transform="rotate(-0 437.969658 207.718423)">Gemma 2 2B Q4</text>
    </g>
    <g id="line2d_26">
     <path d="M 421.169658 214.10561 
L 427.169658 214.10561 
L 433.169658 214.10561 
" style="fill: none; stroke: #e69f00; stroke-width: 1.2; stroke-linecap: round"/>
     <g>
      <use xlink:href="#mb0492e255c" x="427.169658" y="214.10561" style="fill: #e69f00; stroke: #e69f00"/>
     </g>
    </g>
    <g id="text_20">
     <text style="font-size: 6px; font-family: 'Arial', 'DejaVu Sans'; text-anchor: start; fill: #262626" x="437.969658" y="216.20561" transform="rotate(-0 437.969658 216.20561)">Gemma 2 2B FP16</text>
    </g>
   </g>
  </g>
 </g>
 <defs>
  <clipPath id="p95a302c9bd">
   <rect x="31.18" y="3.6" width="463.54122" height="219.19811"/>
  </clipPath>
 </defs>
</svg>
